<svg width="37" height="37" viewBox="0 0 37 37" fill="none" xmlns="http://www.w3.org/2000/svg">
<path d="M34.1308 36.125C29.9203 36.125 25.8163 35.1863 21.8187 33.3089C17.8198 31.4328 14.2785 28.9523 11.1948 25.8673C8.10973 22.7835 5.62918 19.2422 3.7531 15.2433C1.87571 11.2457 0.937012 7.14167 0.937012 2.93125C0.937012 2.34375 1.13284 1.85417 1.52451 1.4625C1.91618 1.07083 2.40576 0.875 2.99326 0.875H10.9245C11.3815 0.875 11.7894 1.02187 12.1485 1.31562C12.5075 1.60937 12.7197 1.98472 12.7849 2.44167L14.0578 9.29583C14.1231 9.75278 14.1153 10.1686 14.0343 10.5433C13.9521 10.9193 13.7641 11.2542 13.4703 11.5479L8.72139 16.3458C10.0922 18.6958 11.8142 20.899 13.8875 22.9552C15.9594 25.0115 18.2356 26.7903 20.7162 28.2917L25.3183 23.6896C25.612 23.3958 25.9958 23.1752 26.4698 23.0277C26.9424 22.8814 27.4072 22.841 27.8641 22.9062L34.6203 24.2771C35.0773 24.375 35.4526 24.595 35.7464 24.937C36.0401 25.2804 36.187 25.6806 36.187 26.1375V34.0688C36.187 34.6563 35.9912 35.1458 35.5995 35.5375C35.2078 35.9292 34.7183 36.125 34.1308 36.125ZM6.86097 12.625L10.0922 9.39375L9.25993 4.79167H4.90264C5.06583 6.12986 5.2943 7.45174 5.58805 8.75729C5.8818 10.0628 6.30611 11.3521 6.86097 12.625ZM24.3881 30.1521C25.661 30.7069 26.9587 31.1476 28.2812 31.474C29.6024 31.8003 30.9322 32.0125 32.2703 32.1104V27.8021L27.6683 26.8719L24.3881 30.1521Z" fill="#F77F00"/>
</svg>
