<svg width="24" height="40" viewBox="0 0 24 40" fill="none" xmlns="http://www.w3.org/2000/svg">
<path d="M12.1855 39.5833C8.72583 39.5833 5.90256 39.0369 3.71576 37.9442C1.52895 36.8501 0.435547 35.4382 0.435547 33.7083C0.435547 32.5659 0.908811 31.5704 1.85534 30.7218C2.80187 29.8732 4.10742 29.2041 5.77201 28.7145L6.89805 32.4354C6.34319 32.5986 5.83728 32.8029 5.38034 33.0483C4.92339 33.2925 4.61333 33.5125 4.45013 33.7083C4.87444 34.2305 5.8536 34.6875 7.38763 35.0791C8.92166 35.4708 10.521 35.6666 12.1855 35.6666C13.8501 35.6666 15.4579 35.4708 17.0089 35.0791C18.5586 34.6875 19.5456 34.2305 19.9699 33.7083C19.8067 33.5125 19.4967 33.2925 19.0397 33.0483C18.5828 32.8029 18.0769 32.5986 17.522 32.4354L18.648 28.7145C20.3126 29.2041 21.6104 29.8732 22.5412 30.7218C23.4708 31.5704 23.9355 32.5659 23.9355 33.7083C23.9355 35.4382 22.8421 36.8501 20.6553 37.9442C18.4685 39.0369 15.6453 39.5833 12.1855 39.5833ZM12.1855 26.5114C12.773 25.4343 13.3932 24.4467 14.046 23.5485C14.6987 22.6515 15.3352 21.7951 15.9553 20.9791C17.163 19.4125 18.1258 18.0005 18.8439 16.7432C19.5619 15.4873 19.921 13.9291 19.921 12.0687C19.921 9.91454 19.1703 8.08676 17.6689 6.58538C16.1675 5.08399 14.3397 4.33329 12.1855 4.33329C10.0314 4.33329 8.2036 5.08399 6.70221 6.58538C5.20082 8.08676 4.45013 9.91454 4.45013 12.0687C4.45013 13.9291 4.80916 15.4873 5.52721 16.7432C6.24527 18.0005 7.20812 19.4125 8.41575 20.9791C9.03589 21.7951 9.67235 22.6515 10.3251 23.5485C10.9779 24.4467 11.598 25.4343 12.1855 26.5114ZM12.1855 33.7083C11.8265 33.7083 11.5001 33.6019 11.2064 33.3891C10.9126 33.1776 10.7005 32.8923 10.5699 32.5333C9.81923 30.2159 8.8727 28.2739 7.73034 26.7073C6.58798 25.1406 5.47825 23.6392 4.40117 22.2031C3.35673 20.767 2.45132 19.2819 1.68496 17.7479C0.917297 16.2138 0.533464 14.3208 0.533464 12.0687C0.533464 8.80482 1.65951 6.04683 3.91159 3.79475C6.16367 1.54267 8.92166 0.416626 12.1855 0.416626C15.4494 0.416626 18.2074 1.54267 20.4595 3.79475C22.7116 6.04683 23.8376 8.80482 23.8376 12.0687C23.8376 14.3208 23.4623 16.2138 22.7116 17.7479C21.9609 19.2819 21.047 20.767 19.9699 22.2031C18.9255 23.6392 17.8242 25.1406 16.6662 26.7073C15.5069 28.2739 14.5519 30.2159 13.8012 32.5333C13.6706 32.8923 13.4585 33.1776 13.1647 33.3891C12.871 33.6019 12.5446 33.7083 12.1855 33.7083ZM12.1855 16.2302C13.3279 16.2302 14.3071 15.8222 15.123 15.0062C15.939 14.1902 16.347 13.2111 16.347 12.0687C16.347 10.9263 15.939 9.94718 15.123 9.13121C14.3071 8.31524 13.3279 7.90725 12.1855 7.90725C11.0432 7.90725 10.064 8.31524 9.24805 9.13121C8.43208 9.94718 8.02409 10.9263 8.02409 12.0687C8.02409 13.2111 8.43208 14.1902 9.24805 15.0062C10.064 15.8222 11.0432 16.2302 12.1855 16.2302Z" fill="#F77F00"/>
</svg>
