<svg width="24" height="17" viewBox="0 0 24 17" fill="none" xmlns="http://www.w3.org/2000/svg">
<mask id="mask0_799_129" style="mask-type:luminance" maskUnits="userSpaceOnUse" x="0" y="0" width="24" height="17">
<rect y="0.633789" width="24" height="16" fill="white"/>
</mask>
<g mask="url(#mask0_799_129)">
<path fill-rule="evenodd" clip-rule="evenodd" d="M0 0.633789H24V16.6338H0V0.633789Z" fill="#E31D1C"/>
<path fill-rule="evenodd" clip-rule="evenodd" d="M0 1.96729V3.30062H24V1.96729H0ZM0 4.63397V5.96731H24V4.63397H0ZM0 8.63397V7.30064H24V8.63397H0ZM0 9.96731V11.3006H24V9.96731H0ZM0 13.9673V12.634H24V13.9673H0ZM0 16.634V15.3006H24V16.634H0Z" fill="#F7FCFF"/>
<rect y="0.633789" width="13.5" height="9.33333" fill="#2E42A5"/>
<path fill-rule="evenodd" clip-rule="evenodd" d="M1.55996 3.53196L2.35484 3.03978L2.9714 3.43434H2.62231L3.32832 3.98941L3.08986 4.76768H2.71638L2.35373 4.05288L2.04445 4.76768H1.12231L1.82832 5.32274L1.55996 6.19861L2.35484 5.70643L2.97143 6.10101H2.62231L3.32832 6.65607L3.08986 7.43434H2.71638L2.35373 6.71955L2.04445 7.43434H1.12231L1.82832 7.98941L1.55996 8.86527L2.35484 8.3731L3.12394 8.86527L2.88482 7.98941L3.50247 7.43434H3.21758L3.85484 7.03977L4.47143 7.43434H4.12231L4.82832 7.98941L4.55996 8.86527L5.35484 8.3731L6.12394 8.86527L5.88482 7.98941L6.50247 7.43434H6.21758L6.85484 7.03977L7.47143 7.43434H7.12231L7.82832 7.98941L7.55996 8.86527L8.35484 8.3731L9.12394 8.86527L8.88482 7.98941L9.50247 7.43434H9.21758L9.85484 7.03977L10.4714 7.43434H10.1223L10.8283 7.98941L10.56 8.86527L11.3548 8.3731L12.1239 8.86527L11.8848 7.98941L12.5025 7.43434H11.7164L11.3537 6.71955L11.0444 7.43434H10.5973L10.3848 6.65607L11.0025 6.10101H10.7176L11.3548 5.70643L12.1239 6.19861L11.8848 5.32274L12.5025 4.76768H11.7164L11.3537 4.05288L11.0444 4.76768H10.5973L10.3848 3.98941L11.0025 3.43434H10.7176L11.3548 3.03978L12.1239 3.53196L11.8848 2.65609L12.5025 2.10103H11.7164L11.3537 1.38623L11.0444 2.10103H10.1223L10.8283 2.65609L10.5899 3.43434H10.2164L9.85373 2.71955L9.54445 3.43434H9.09729L8.88482 2.65609L9.50247 2.10103H8.71638L8.35372 1.38623L8.04445 2.10103H7.12231L7.82832 2.65609L7.58986 3.43434H7.21638L6.85373 2.71955L6.54445 3.43434H6.09729L5.88482 2.65609L6.50247 2.10103H5.71638L5.35372 1.38623L5.04445 2.10103H4.12231L4.82832 2.65609L4.58986 3.43434H4.21638L3.85373 2.71955L3.54445 3.43434H3.09729L2.88482 2.65609L3.50247 2.10103H2.71638L2.35373 1.38623L2.04445 2.10103H1.12231L1.82832 2.65609L1.55996 3.53196ZM10.5899 6.10101L10.8283 5.32274L10.1223 4.76768H10.4714L9.85484 4.3731L9.21758 4.76768H9.50247L8.88482 5.32274L9.09729 6.10101H9.54445L9.85373 5.38621L10.2164 6.10101H10.5899ZM8.97143 6.10101L8.35484 5.70643L7.71758 6.10101H8.00247L7.38482 6.65607L7.59729 7.43434H8.04445L8.35373 6.71955L8.71638 7.43434H9.08986L9.32832 6.65607L8.62231 6.10101H8.97143ZM6.32832 6.65607L6.08986 7.43434H5.71638L5.35373 6.71955L5.04445 7.43434H4.59729L4.38482 6.65607L5.00247 6.10101H4.71758L5.35484 5.70643L5.97143 6.10101H5.62231L6.32832 6.65607ZM6.54445 6.10101H6.09729L5.88482 5.32274L6.50247 4.76768H6.21758L6.85484 4.3731L7.47143 4.76768H7.12231L7.82832 5.32274L7.58986 6.10101H7.21638L6.85373 5.38621L6.54445 6.10101ZM4.58986 6.10101L4.82832 5.32274L4.12231 4.76768H4.47143L3.85484 4.3731L3.21758 4.76768H3.50247L2.88482 5.32274L3.09729 6.10101H3.54445L3.85373 5.38621L4.21638 6.10101H4.58986ZM9.32832 3.98941L9.08986 4.76768H8.71638L8.35373 4.05288L8.04445 4.76768H7.59729L7.38482 3.98941L8.00247 3.43434H7.71761L8.35484 3.03978L8.9714 3.43434H8.62231L9.32832 3.98941ZM5.9714 3.43434L5.35484 3.03978L4.71761 3.43434H5.00247L4.38482 3.98941L4.59729 4.76768H5.04445L5.35373 4.05288L5.71638 4.76768H6.08986L6.32832 3.98941L5.62231 3.43434H5.9714Z" fill="#F7FCFF"/>
</g>
</svg>
