<svg width="17" height="18" viewBox="0 0 17 18" fill="none" xmlns="http://www.w3.org/2000/svg">
<path d="M0.25 17.083L1.43384 12.6851C0.479102 10.9719 0.175773 8.97277 0.579512 7.0545C0.983251 5.13624 2.06697 3.42753 3.63182 2.24193C5.19666 1.05634 7.13766 0.473383 9.09864 0.60004C11.0596 0.726697 12.909 1.55447 14.3075 2.93146C15.706 4.30846 16.5598 6.1423 16.7121 8.09649C16.8644 10.0507 16.3052 11.9941 15.1369 13.5702C13.9686 15.1463 12.2697 16.2493 10.3519 16.6768C8.43417 17.1043 6.42616 16.8276 4.69638 15.8975L0.25 17.083ZM4.91078 14.2518L5.18576 14.4145C6.43868 15.1553 7.90206 15.4618 9.34787 15.2864C10.7937 15.1109 12.1407 14.4633 13.179 13.4446C14.2173 12.4258 14.8886 11.093 15.0882 9.65397C15.2878 8.21492 15.0046 6.75042 14.2827 5.48868C13.5607 4.22695 12.4406 3.23886 11.0969 2.6784C9.75322 2.11794 8.26137 2.01658 6.85388 2.39013C5.44638 2.76367 4.2023 3.59114 3.31551 4.74357C2.42871 5.89601 1.94902 7.30868 1.95118 8.76144C1.95001 9.96601 2.28399 11.1473 2.91596 12.1737L3.08841 12.4573L2.42658 14.912L4.91078 14.2518Z" fill="white"/>
<path fill-rule="evenodd" clip-rule="evenodd" d="M11.5849 9.8907C11.4237 9.76101 11.2349 9.66973 11.033 9.62381C10.8311 9.57789 10.6213 9.57854 10.4197 9.62571C10.1167 9.75123 9.92098 10.2254 9.72523 10.4625C9.68395 10.5194 9.6233 10.5592 9.55465 10.5746C9.486 10.59 9.41408 10.5799 9.35237 10.5462C8.24326 10.1129 7.31359 9.31831 6.71437 8.29147C6.66326 8.2274 6.63907 8.14604 6.64689 8.06453C6.65472 7.98302 6.69394 7.90771 6.75631 7.85447C6.97464 7.63889 7.13494 7.37186 7.22239 7.0781C7.24181 6.75408 7.16739 6.43132 7.008 6.14832C6.88477 5.75156 6.65027 5.39828 6.33218 5.13021C6.16812 5.05661 5.98622 5.03193 5.80841 5.05915C5.63061 5.08637 5.46449 5.16433 5.33012 5.28362C5.09683 5.48438 4.91166 5.73478 4.78825 6.01638C4.66484 6.29798 4.60632 6.6036 4.61702 6.91074C4.61774 7.08322 4.63965 7.25496 4.68227 7.42212C4.79049 7.82375 4.95693 8.20746 5.17631 8.56111C5.33459 8.83202 5.50728 9.09428 5.69366 9.34678C6.29935 10.1761 7.06071 10.8803 7.93549 11.4202C8.37446 11.6946 8.84363 11.9176 9.33372 12.085C9.84283 12.3152 10.4049 12.4035 10.9603 12.3407C11.2768 12.2929 11.5766 12.1683 11.8334 11.9778C12.0903 11.7873 12.2962 11.5367 12.4331 11.2482C12.5136 11.0739 12.538 10.879 12.5031 10.6903C12.4192 10.3045 11.9018 10.0767 11.5849 9.8907Z" fill="white"/>
</svg>
